<?xml version="1.0" standalone="no"?>
<!DOCTYPE svg PUBLIC "-//W3C//DTD SVG 20010904//EN"
 "http://www.w3.org/TR/2001/REC-SVG-20010904/DTD/svg10.dtd">
<svg version="1.0" xmlns="http://www.w3.org/2000/svg"
 width="158.000000pt" height="209.000000pt" viewBox="0 0 158.000000 209.000000"
 preserveAspectRatio="xMidYMid meet">

<g transform="translate(0.000000,209.000000) scale(0.100000,-0.100000)"
fill="#000000" stroke="none">
<path d="M65 2019 c-4 -6 -5 -12 -2 -15 2 -3 7 2 10 11 7 17 1 20 -8 4z"/>
<path d="M40 1991 c0 -6 4 -13 10 -16 6 -3 7 1 4 9 -7 18 -14 21 -14 7z"/>
<path d="M1542 1264 c-1 -6 -33 -58 -71 -115 -121 -183 -289 -343 -479 -458
-88 -53 -256 -123 -341 -143 -28 -6 -51 -15 -51 -19 0 -4 204 -8 453 -9 422
-1 456 1 476 17 21 18 21 19 19 378 -2 198 -4 355 -6 349z"/>
<path d="M50 556 c0 -2 8 -10 18 -17 15 -13 16 -12 3 4 -13 16 -21 21 -21 13z"/>
<path d="M136 451 c-8 -13 -96 -263 -96 -273 0 -5 13 -8 29 -8 23 0 31 6 40
30 9 28 13 30 65 30 51 0 55 -2 65 -30 8 -24 16 -30 40 -30 19 0 31 5 30 13 0
6 -22 70 -48 142 l-47 130 -36 3 c-20 2 -39 -1 -42 -7z m68 -138 c7 -21 4 -23
-29 -23 -36 0 -36 0 -30 33 4 17 12 43 17 57 l10 25 13 -35 c7 -19 15 -45 19
-57z"/>
<path d="M375 448 c-31 -17 -45 -39 -45 -72 0 -45 10 -55 81 -81 71 -25 90
-45 70 -69 -19 -22 -68 -20 -88 4 -10 11 -30 20 -46 20 -25 0 -27 -3 -21 -22
10 -36 23 -47 65 -58 48 -13 101 -4 134 22 19 15 25 29 25 59 0 48 -18 66 -97
94 -44 15 -58 25 -58 40 0 16 8 21 38 23 26 2 39 -1 43 -12 4 -10 19 -16 40
-16 l35 0 -15 29 c-24 45 -112 66 -161 39z"/>
<path d="M550 430 c0 -29 2 -30 45 -30 l45 0 0 -115 0 -115 30 0 30 0 0 115 0
115 45 0 c43 0 45 1 45 30 l0 30 -120 0 -120 0 0 -30z"/>
<path d="M810 315 l0 -145 30 0 c30 0 30 1 30 55 l0 55 38 0 c49 0 62 -14 62
-67 0 -41 1 -43 30 -43 30 0 30 1 30 54 0 35 -5 60 -15 69 -12 13 -12 17 -1
26 20 17 27 56 16 86 -14 36 -65 55 -150 55 l-70 0 0 -145z m141 85 c23 -13
25 -55 3 -64 -9 -3 -31 -6 -50 -6 -33 0 -34 1 -34 40 0 38 2 40 31 40 17 0 39
-5 50 -10z"/>
<path d="M1139 433 c-16 -41 -89 -255 -89 -259 0 -2 14 -4 31 -4 24 0 32 6 40
30 10 28 14 30 64 30 49 0 53 -2 65 -30 10 -25 18 -30 46 -30 l33 0 -39 110
c-66 184 -64 180 -105 180 -30 0 -37 -5 -46 -27z m75 -120 c7 -21 4 -23 -28
-23 -41 0 -41 0 -19 65 l16 49 12 -34 c7 -19 15 -45 19 -57z"/>
<path d="M1357 454 c-4 -4 -7 -70 -7 -146 l0 -138 100 0 100 0 0 25 c0 24 -2
25 -70 25 l-69 0 -3 118 c-3 109 -4 117 -23 120 -12 2 -24 0 -28 -4z"/>
<path d="M51 89 c-22 -62 -39 -59 298 -59 301 0 310 1 316 20 8 27 45 27 45 0
0 -20 19 -29 21 -10 2 14 5 22 13 42 4 9 5 22 1 28 -4 6 -119 10 -345 10
l-338 0 -11 -31z m674 6 c0 -5 -10 -11 -22 -13 -16 -2 -23 2 -23 13 0 11 7 15
23 13 12 -2 22 -7 22 -13z"/>
<path d="M802 104 c-42 -29 -22 -74 34 -74 38 0 64 22 64 55 0 37 -57 48 -98
19z m66 -6 c16 -16 15 -23 -4 -42 -36 -36 -81 -2 -48 35 20 22 35 24 52 7z"/>
<path d="M949 93 c-16 -43 -8 -58 33 -61 39 -3 57 13 73 67 12 38 -17 20 -30
-20 -9 -26 -17 -34 -36 -34 -25 0 -28 11 -15 53 11 32 -12 28 -25 -5z"/>
<path d="M1096 93 c-4 -16 -9 -36 -12 -45 -5 -15 1 -18 39 -18 46 0 80 21 56
35 -8 6 -8 9 1 15 26 16 2 40 -39 40 -34 0 -40 -3 -45 -27z m65 2 c0 -5 -9
-11 -21 -13 -20 -3 -27 8 -13 22 10 9 34 3 34 -9z m-3 -37 c-7 -20 -48 -23
-48 -4 0 11 9 16 26 16 16 0 24 -5 22 -12z"/>
<path d="M1246 78 c-21 -26 -30 -45 -24 -47 7 -2 14 1 16 8 5 14 59 14 64 0 2
-7 9 -10 14 -8 15 6 -4 89 -21 89 -7 0 -29 -19 -49 -42z m43 -7 c-15 -5 -22 6
-14 19 6 9 10 9 16 -1 5 -8 4 -15 -2 -18z"/>
<path d="M1381 98 c-19 -53 -22 -68 -11 -68 6 0 14 10 19 23 19 52 22 67 11
67 -6 0 -14 -10 -19 -22z"/>
<path d="M1450 112 c0 -4 6 -14 13 -21 10 -10 6 -17 -18 -37 -17 -13 -24 -24
-16 -24 8 0 23 8 34 17 18 17 19 17 28 0 6 -9 17 -17 25 -17 12 0 12 3 -1 24
-15 23 -14 25 12 45 16 11 22 21 14 21 -8 0 -23 -8 -34 -17 -18 -17 -19 -17
-28 0 -10 17 -29 23 -29 9z"/>
</g>
</svg>
